<svg fill="#ffff" height="16" width="16" version="1.1" id="Layer_1" xmlns="http://www.w3.org/2000/svg" xmlns:xlink="http://www.w3.org/1999/xlink" viewBox="0 0 512 512" xml:space="preserve">
  <g>
    <g>
      <path d="M403.255,0l-78.591,78.591H0V512h433.409V187.338L512,108.747L403.255,0z M391.466,470.057h-41.943v-41.943h41.943
        V470.057z M391.466,386.172h-83.886v83.886H41.943V120.534h240.778L156.557,246.698L129.371,382.63l135.932-27.186L391.466,229.28
        V386.172z M192.05,283.097l36.852,36.852l-46.066,9.213L192.05,283.097z M264.851,296.58l-49.43-49.43l128.52-128.518
        l49.428,49.43L264.851,296.58z M423.025,138.406l-49.428-49.431l29.658-29.658l49.43,49.43L423.025,138.406z"/>
    </g>
  </g>
</svg>